# xmcd
#
# Track frame offsets:
#	150
#	10954
#	22231
#	33517
#	46227
#	58234
#	71626
#	82379
#	95736
#	107312
#	119008
#	129666
#	140086
#	154118
#	166017
#	176588
#	190051
#	199253
#	211094
#	225221
#	234672
#	244294
#
# Disc length: 3416 seconds
#
# Revision: 0
# Processed by: cddbd v1.5.2PL0 Copyright (c) Steve Scherf et al.
# Submitted via: EasyCDDAExtractor 16.0.6.1
#
DISCID=3c0d5616
DTITLE=Various Artist - Country Sunrise [Disc 10]
DYEAR=2006
DGENRE=Country
TTITLE0=James O´Gwynn - My Name Is Mud
TTITLE1=Dave Dudley - Cowboy Boots
TTITLE2=Connie Smith - Just One Time
TTITLE3=David Houston - My Elusive Dreams
TTITLE4=Donna Fargo - Funny Face
TTITLE5=Johnny Paycheck - She's All I Got
TTITLE6=Johnny Cash - Train Of Love
TTITLE7=Lee Greenwood - Hearts Aren't Meant To Break
TTITLE8=Patsy Cline - The Heart You Break Might Be Your Own
TTITLE9=Guy Mitchell - Heartaches By The Number
TTITLE10=Webb Pierce - Cowtown
TTITLE11=The Kendalls - You Make An Angel Want To Cheat
TTITLE12=Conway Twitty - 15 Years Ago
TTITLE13=Jack Greene - There Goes My Everything
TTITLE14=Don Gibson - Funny, Familiar, Forgotten Feelings
TTITLE15=Deborah Allen - I've Been Wrong Before
TTITLE16=Moe Bandy - Tumbling Tumbleweeds
TTITLE17=Roy Clark - If I Had To Do It All Over Again
TTITLE18=George Jones - A Good Year For The Roses
TTITLE19=The Louvin Brothers - I Don't Believe You've Met My Baby
TTITLE20=Mel McDaniel - Let It Roll
TTITLE21=Willie Nelson - The End Of The Understanding
EXTD=
EXTT0=
EXTT1=
EXTT2=
EXTT3=
EXTT4=
EXTT5=
EXTT6=
EXTT7=
EXTT8=
EXTT9=
EXTT10=
EXTT11=
EXTT12=
EXTT13=
EXTT14=
EXTT15=
EXTT16=
EXTT17=
EXTT18=
EXTT19=
EXTT20=
EXTT21=
PLAYORDER=
